<?xml version="1.0" encoding="UTF-8"?>
<svg id="Layer_2" data-name="Layer 2" xmlns="http://www.w3.org/2000/svg" viewBox="0 0 481.99 86.32">
  <defs>
    <style>
      .cls-1 {
        fill: #fdfdfe;
      }

      .cls-1, .cls-2, .cls-3 {
        stroke-width: 0px;
      }

      .cls-2 {
        fill: #0e458d;
      }

      .cls-3 {
        fill: #579ad3;
      }
    </style>
  </defs>
  <path class="cls-2" d="m291.13,48.33c-4.24,6.19-7.59,11.83-11.7,16.86-3.07,3.76-7.89,4.43-12.61,4.07-17.06-1.28-34.12-2.65-51.17-3.98-.31-.02-.62-.04-.92-.11-2.82-.63-7.4,1.05-8.15-1.03-.94-2.58,3.44-4.34,5.15-6.75,2.97-4.18,6.89-5.53,12.15-5.73,21.42-.8,42.81-2.18,64.21-3.34.61-.03,1.22,0,3.04,0Z"/>
  <path class="cls-3" d="m305.76,25.75c-3.97,11.86-11.51,17.46-23.59,18.11-19.98,1.07-39.95,2.34-61.3,3.6,6.62-5.49,9.88-12.54,19.15-13.5,21.55-2.23,42.99-5.59,64.48-8.47.4-.05.84.17,1.27.26Z"/>
  <path class="cls-3" d="m98.43,47.88c-.65,4.15-1.51,8.28-1.9,12.45-.49,5.26-4.4,3.07-7.02,3.33-3.41.34-2.59-2.34-2.32-4.14,1.81-11.93,3.73-23.84,5.6-35.76.22-1.38.83-2.3,2.37-2.26,5.84.16,11.72-.6,17.49.86,7.93,2.01,10.68,7.96,7.18,15.36-1.58,3.34-4.12,5.88-7.41,7.27-3.21,1.35-2.6,2.87-1.28,5.12,2.02,3.43,3.78,7.01,5.76,10.46,1.41,2.45.64,2.99-1.98,3.26-4.73.49-7.8-.92-9.68-5.52-1.52-3.72-3.87-7.1-5.85-10.64-.32.07-.65.15-.97.22Zm12.77-14.26c.35-4.07-3.13-4.52-6.59-5.23-3.96-.81-3.71,2.16-4.18,4.39-.45,2.09-.68,4.23-.93,6.35-.11.97-.64,2.07.89,2.66,4.14,1.6,10.68-2.87,10.82-8.17Z"/>
  <path class="cls-3" d="m253.4,27.72c6.43-7.74,11.6-16.04,23.24-17.74,14.98-2.19,29.66-6.39,45.57-9.98-3.92,5.98-7.15,11.11-10.6,16.08-1.42,2.03-3.58,3.39-6.09,3.91-17.16,3.57-34.6,5.29-52.12,7.73Z"/>
  <path class="cls-3" d="m458.26,64.93c-2,.11-4.42-.2-6.81-.9-5.52-1.6-8.21-4.94-8.35-10.65-.16-6.8,1.51-13.4,3.12-19.87,1.06-4.26,5.81-2.43,8.84-2.49,3.45-.06,1.13,2.91.96,4.15-.68,4.99-1.87,9.92-1.95,14.99-.08,5.05,2.09,6.96,7.13,6.36,5.77-.69,10.76-7.24,9.78-13-.63-3.7-3.56-3.93-6.6-4.4-1.81-.28-5.4,2.06-5.22-2,.13-3.07,1.03-6.06,5.67-6.27,14.51-.66,20.18,6.33,15.65,19.89-3.25,9.74-9.83,14.03-22.21,14.18Z"/>
  <path class="cls-3" d="m154.87,60.33c-.77.49-1.56.95-2.3,1.47-3.74,2.61-7.7,4.22-12,1.48-4.27-2.72-5.27-7.08-4.82-11.7,1.15-11.91,7.1-18.12,19.13-19.07,4.46-.35,5.42-2.29,5.55-5.88.04-1.07.21-2.14.42-3.19.57-2.97,5.8-5.47,8.39-4.02,1.54.86.74,2.14.57,3.27-1.87,12.72-3.83,25.42-5.6,38.15-.35,2.52-1.73,2.93-3.79,2.9-2.58-.04-5.53.58-5.58-3.46.57.19.69-.01.46-.52-.14.19-.28.38-.42.57Zm-9.34-7.65c0,1.24-.5,3.65,2.01,4.74,2.17.95,4.2.06,6.07-1.19,1.88-1.25,3.09-2.75,3.25-5.19.19-2.88.7-5.78,1.38-8.59.76-3.12-.59-3.72-3.34-3.58-6,.3-9.13,4.55-9.38,13.81Z"/>
  <path class="cls-2" d="m22.22,50.99c0-10.72,8.25-19.25,18.61-19.23,8.25.01,13.94,5.9,13.93,14.41-.02,9.89-8.77,18.62-18.52,18.48-8.65-.12-14.02-5.36-14.02-13.66Zm23.28-5.58c-.17-2.77-.69-5.05-3.31-6.29-2.09-.98-3.89-.42-5.58.84-3.47,2.58-5.88,10.09-4.56,14.14,1.48,4.54,5.44,5.64,8.87,2.26,3.08-3.03,4.29-6.95,4.58-10.95Z"/>
  <path class="cls-3" d="m407.37,64.06c-3.85,0-7.71.05-11.56-.02-1.66-.03-4.27.71-3.57-2.43.52-2.3-.78-5.99,3.77-5.91,3.85.07,7.71-.13,11.56.07,2.33.12,3.34-.79,3.67-2.93.45-3.02.95-6.03,1.48-9.04.58-3.29-1.08-4.5-4.11-4.52-1.85-.01-3.77.29-5.53-.12-1.82-.42-5.37,1.95-5.17-2.16.15-3.06.07-7,5.46-6.24,3.32.46,6.77-.02,10.16.11,6.88.26,10.47,4.12,10.17,10.9-.08,1.82-.12,3.83-.9,5.39-2.32,4.68,1.1,9.09.3,13.71-.43,2.48-1.19,3.36-3.71,3.24-4-.19-8.01-.05-12.02-.05Z"/>
  <path class="cls-2" d="m33.02,21.43c-1.48,7.79-1.49,8.02-8.6,7.77-3.5-.12-4.48,1.26-4.89,4.33-1.16,8.65-2.54,17.26-3.87,25.88-.56,3.62-6.4,6.06-9.44,3.94-1.48-1.03-.69-2.58-.51-3.81,1.32-8.62,2.66-17.24,4.22-25.82.6-3.28.13-5.08-3.71-4.45-.75.12-1.59.19-2.3-.02-1.44-.42-4.36,1.37-3.86-2.05.35-2.34-.74-5.87,3.83-5.81,9.56.12,19.12.04,29.13.04Z"/>
  <path class="cls-3" d="m184.55,64.16c-9.79-.08-14.26-2.86-14.87-9.13-.26-2.73-.28-5.56.13-8.25,1.59-10.27,12.85-16.96,22.73-13.67,3.67,1.22,6.28,3.52,6.53,7.49.25,3.98-2.03,6.62-5.57,8.19-3.71,1.65-7.67,2.39-11.7,2.29-4.1-.1-3.43,1.94-2.15,4.26.97,1.76,2.68,2.52,4.67,2.45,2.46-.08,4.92-.37,7.39-.38,1.29,0,3.4-1.9,3.71.54.23,1.83,0,4.35-2.82,5.13-2.86.79-5.73,1.16-8.05,1.08Zm-4.77-18.98c2.74.48,5.31-.06,7.84-.64,2-.46,3.43-1.59,2.63-3.91-.71-2.06-2.36-2.86-4.4-2.14-3.18,1.11-5.59,3.05-6.08,6.69Z"/>
  <path class="cls-2" d="m87.56,33.13c-5.23,9.95-10.04,19.45-15.2,28.76-1.87,3.37-5.46,1.77-8.4,1.72-2.77-.04-2.42-2.33-2.73-4-1.4-7.65-2.76-15.31-4.03-22.99-.22-1.34-1.95-3.83,1.2-3.64,2.58.16,6.58-2.3,7.49,2.57,1.05,5.69,1.84,11.43,2.94,18.38,2.5-5.43,4.52-9.81,6.53-14.19q3.34-7.29,12.21-6.63Z"/>
  <path class="cls-2" d="m323.17,30.51c3.24,0,6.48.13,9.71-.04,2.4-.12,2.65.94,1.8,2.67-1.37,2.78-1.99,6.23-6.25,6.42-1.71.08-1.78,1.78-2.03,3.17-1.1,6.17-2.14,12.34-3.43,18.47-1.25,5.99-6.05,2.39-8.99,2.59-3.23.22-.96-2.74-.76-4.12.75-5.29,1.73-10.54,2.77-15.78.62-3.15.25-4.95-3.72-4.41-1.38.19-4.76,1.42-4.16-1.32.6-2.73.26-7.23,4.9-7.61,3.37-.27,6.78-.05,10.17-.05Z"/>
  <path class="cls-2" d="m373.54,30.84c1.54,0,3.09-.02,4.63,0,8.91.09,13.25,5.05,11.94,13.91-.74,4.99-1.93,9.9-2.68,14.89-.5,3.35-1.69,4.83-5.54,4.55-6.15-.45-6.13-.1-4.88-6.19.89-4.35,1.64-8.72,2.44-13.08.73-3.97-1.03-5.79-5-5.72-2.93.05-5.87.17-8.8.05-1.23-.05-3.8.99-3.09-1.74.6-2.31-.9-6.02,3.12-6.58,2.57-.36,5.24-.07,7.87-.07Z"/>
  <path class="cls-3" d="m365.23,78.75c3.35.21,6.38.61,7.39-4.16.59-2.82,3.99-1.3,6.08-1.3,2.36,0,1.43,1.68.95,2.98-.48,1.32-.39,2.56,1.36,2.64,1.42.06,3.65.75,3.87-1.34.62-6.12,5.05-4.96,8.92-4.99,2.61-.02,5.22,0,8.35,0-1.25,4.15-2.44,7.9-3.49,11.69-.43,1.55-1.48,1.76-2.8,1.76-5.25,0-10.5-.08-15.75.03-2.49.05-2.87-.96-2.23-3.09.34-1.14,1.43-3.06-.96-3.09-1.8-.02-4.93-1.69-5.13,1.87-.29,5.15-3.71,4.64-7.11,4.5-2.92-.12-5.84-.24-8.77-.36-.45-4.59,1.13-7.17,6.29-6.47.96.13,2.02-.42,3.04-.66Z"/>
  <path class="cls-3" d="m431.34,64.06c-5.46.02-5.4.03-4.39-5.36,1.45-7.66,2.83-15.33,4.18-23.01.72-4.07,2.82-5.19,8.27-4.06,3.7.77,1.53,3.3,1.25,5.04-1.26,7.69-2.67,15.36-4.07,23.03-.79,4.34-.83,4.33-5.24,4.35Z"/>
  <path class="cls-3" d="m126.15,63.64c-4.19.86-5.03-.76-4.27-4.73,1.41-7.34,2.25-14.79,3.35-22.19.22-1.46-.05-3.48,1.84-3.81,2.54-.44,5.26-.73,7.72.18,1.18.44.29,1.91.15,2.9-1.09,7.71-2.34,15.41-3.26,23.14-.42,3.57-1.67,5.5-5.54,4.51Z"/>
  <path class="cls-2" d="m216.72,23.08c14.88-4.35,30.11-6.9,45.42-9.5-5.55,5.51-10.99,10.85-19.72,10.97-8.61.12-17.17.2-25.7-1.47Z"/>
  <path class="cls-2" d="m338.09,49.16c-4.01.83-4.73-.56-3.73-4.07,1.03-3.63,1.66-7.44,1.95-11.21.44-5.73,4.67-3.1,7.22-3.21,3.53-.16,1.91,2.59,1.61,4.32-.57,3.29-1.58,6.54-1.82,9.85-.27,3.73-1.63,5.42-5.23,4.32Z"/>
  <path class="cls-2" d="m347.78,49.3c1.12-5.67,2.1-10.91,3.21-16.11,1.1-5.13,5.24-2.36,7.86-2.47,3.13-.13.96,2.55.83,3.74-.38,3.47-1.52,6.86-1.84,10.34-.36,3.91-2.22,5.17-5.92,4.54-1.18-.2-2.43-.03-4.14-.03Z"/>
  <path class="cls-2" d="m365.23,78.75c-1.01.24-2.07.79-3.04.66-5.16-.69-6.74,1.88-6.29,6.47-.91.06-1.93.41-2.72.13-1.46-.51-4.46,1.58-4.2-1.4.2-2.31,0-6.31,4.7-5.66,2.02.28,4.13.27,4.28-2.65.25-4.76,3.91-4.21,6.66-3.56,3.67.87.06,3.39.56,5.1.08.28.03.6.04.91Z"/>
  <path class="cls-3" d="m131.53,28.7c-2.87-.38-5.32-1.52-5.29-4.65.03-3.62,2.7-5.45,6-5.71,3.09-.24,5.65,1.45,5.45,4.74-.21,3.41-2.96,4.99-6.16,5.63Z"/>
  <path class="cls-1" d="m111.2,33.61c-.14,5.3-6.68,9.77-10.82,8.17-1.53-.59-1-1.68-.89-2.66.25-2.13.48-4.26.93-6.35.48-2.23.22-5.2,4.18-4.39,3.46.71,6.94,1.16,6.59,5.23Z"/>
  <path class="cls-1" d="m145.54,52.69c.24-9.27,3.38-13.51,9.38-13.81,2.74-.14,4.1.46,3.34,3.58-.69,2.81-1.19,5.71-1.38,8.59-.16,2.45-1.37,3.94-3.25,5.19-1.87,1.25-3.9,2.14-6.07,1.19-2.5-1.09-2.01-3.5-2.01-4.74Z"/>
  <path class="cls-1" d="m154.87,60.33c.14-.19.28-.38.42-.57.23.51.11.71-.46.52,0,0,.04.04.04.04Z"/>
  <path class="cls-1" d="m45.5,45.41c-.29,4.01-1.51,7.93-4.58,10.95-3.43,3.38-7.39,2.28-8.87-2.26-1.32-4.05,1.09-11.56,4.56-14.14,1.7-1.26,3.5-1.82,5.58-.84,2.62,1.24,3.15,3.52,3.31,6.29Z"/>
  <path class="cls-1" d="m179.78,45.18c.49-3.64,2.9-5.58,6.08-6.69,2.04-.71,3.68.08,4.4,2.14.8,2.32-.63,3.45-2.63,3.91-2.53.58-5.1,1.12-7.84.64Z"/>
</svg>