<svg xmlns="http://www.w3.org/2000/svg" xmlns:xlink="http://www.w3.org/1999/xlink" width="2109" height="1025.002" viewBox="0 0 2109 1025.002"><defs><clipPath id="a"><path d="M0,0H2109V1025H0Z" transform="translate(0)" fill="none"/></clipPath></defs><g transform="translate(0)"><path d="M2095.684,1025h0l-2.479,0L1933.254,865.11,1757.5,689.425,1582.993,863.87,1744.181,1025h-2.48L1581.752,865.11,1494.5,952.335,1421.8,1025h-2.478l73.931-73.905,87.256-87.224L1406,689.425l-87.256,87.223-88.5,88.462L1070.306,1025h-2.48l161.186-161.129L1054.5,689.427,879.99,863.871,1041.179,1025H1038.7L878.749,865.111l-88.494-88.462L703,689.425,528.491,863.87l87.255,87.224L689.678,1025H687.2l-72.691-72.665L527.251,865.11,367.3,1025H364.82L526.01,863.87,351.5,689.425,175.754,865.11,15.8,1025H13.322l161.19-161.13L0,689.425l0-2.483,0,0,173.634-173.57H0v-1.752H173.632L0,338.056v-2.479L174.51,161.131,13.321,0H15.8L175.75,159.89,351.5,335.578,526.011,161.131,364.823,0H367.3L527.251,159.89l87.256-87.222L687.2,0h2.48L615.746,73.909l-87.255,87.222L703,335.574l87.256-87.222,88.494-88.466L1038.7,0h2.482L879.99,161.127,1054.5,335.571l174.512-174.444L1067.824,0h2.481l159.946,159.887,88.5,88.466L1406,335.578l174.509-174.448L1493.257,73.9,1419.323,0h2.48L1494.5,72.664l87.254,87.226L1741.7,0h2.483L1582.993,161.131,1757.5,335.578,1933.252,159.89,2093.2,0h2.48L1934.491,161.131,2109,335.577v2.479L1935.368,511.625H2109v1.752l-173.631,0L2109,686.942v2.485L1934.492,863.87,2095.682,1025ZM1230.251,162.366h0L1055.743,336.813,1143,424.036l88.494,88.466L1143,600.965l-87.256,87.222,174.508,174.448,87.255-87.225,88.5-88.463L1580.51,512.5,1406,338.056l-88.5-88.464-87.255-87.226Zm-351.5,0h0l-87.255,87.226L703,338.053,528.49,512.5,703,686.947l88.495,88.463,87.255,87.225,174.512-174.45-87.256-87.224L877.514,512.5h0L966,424.04l87.257-87.226L878.749,162.366Zm1054.5,0h0L1757.5,338.056,1582.993,512.5H1583l174.5,174.444,175.752,175.686,174.51-174.448L1932.016,512.5,2107.76,336.816,1933.251,162.369Zm-351.5,351.372h0L1407.243,688.185,1581.752,862.63l174.51-174.445-174.51-174.444Zm-1054.5,0h0L352.741,688.185,527.251,862.63,701.759,688.185,527.251,513.741ZM175.75,162.369h0L1.242,336.816,176.991,512.5,1.244,688.185,175.754,862.63,351.5,686.947,526.008,512.5,351.5,338.056,175.75,162.369ZM880.866,513.375h0l86.379,86.348,87.255,87.222,87.258-87.22,86.377-86.348-347.269,0ZM1054.5,338.053l-87.258,87.225-86.378,86.347h347.269l-86.377-86.349Zm527.25-175.684h0L1407.243,336.816l174.509,174.445,174.51-174.445-174.51-174.447Zm-1054.5,0h0L352.741,336.816,527.25,511.261,701.759,336.813,527.251,162.369Z" fill="#0a0a0a"/><path d="M0,0H2109V1025H0Z" transform="translate(0)" fill="none"/><g clip-path="url(#a)"><path d="M1231.494,2108.227h0l-176.991,0H877.513l0,0,175.749-175.684L878.751,1758.094,703,1933.777,528.492,2108.224h-2.481L351.5,1933.777l-88.5-88.464-87.256-87.222L1.242,1932.536,88.5,2019.76l88.5,88.465H0v-.88H.879l172.757,0L87.255,2021,0,1933.775V1931.3l174.512-174.444L0,1582.407v-2.483l174.512-174.443L0,1231.035l0,0v-2.485l0,0,173.632-173.57H0v-1.753H173.633L0,879.666v-2.479L174.508,702.74,0,528.3v-2.481L174.512,351.37,0,176.924v-2.479L87.255,87.222,173.636.875.875.871,0,.875V0H176.992L88.5,88.461,1.242,175.685,175.75,350.131l87.256-87.223,88.5-88.464L526.011,0h2.481L703,174.442,878.751,350.127l174.51-174.445L877.513,0h353.979L1055.742,175.684,1230.25,350.131,1406,174.443,1580.509,0h2.482L1757.5,174.442l88.494,88.466,87.257,87.223,174.511-174.446L2020.505,88.46,1932.01,0H2109V.875h-.876l-172.758,0,86.378,86.348L2109,174.444v2.482L1934.491,351.37,2109,525.815V528.3L1934.491,702.74,2109,877.188v2.479l-173.632,173.568H2109v1.753l-173.631,0L2109,1228.553v2.485l-174.507,174.442L2109,1579.924v2.484l-174.509,174.444L2109,1931.3v2.481L2021.743,2021l-86.377,86.346h172.758l.877,0v.879H1932.01l88.494-88.463,87.256-87.226L1933.25,1758.092,1846,1845.314l-88.5,88.465-174.509,174.445h-2.482L1406,1933.779,1230.25,1758.094,1055.742,1932.54l175.751,175.685ZM1054.5,1933.778h0L880.868,2107.346H1054.5l173.633,0L1054.5,1933.779Zm527.25-175.685h0L1407.242,1932.54l174.509,174.444,174.51-174.444-174.51-174.446Zm-1054.5,0h0L352.743,1932.537l174.51,174.447,174.511-174.447L527.253,1758.092ZM1406,1231.035h0l-87.255,87.224-88.5,88.462-174.509,174.447,174.509,174.446L1406,1931.3l174.51-174.447-175.749-175.686,88.495-88.464,87.256-87.223L1406,1231.035Zm351.5,0h0l-174.508,174.445,175.75,175.685-88.5,88.465-87.254,87.223L1757.5,1931.3l87.254-87.224,88.5-88.462,174.511-174.448L1933.254,1406.72,1757.5,1231.035Zm-1054.5,0h0L528.491,1405.481l87.254,87.223,88.5,88.464L528.492,1756.852,703,1931.3l175.748-175.685,174.508-174.446L878.748,1406.722l-88.494-88.462L703,1231.035Zm-351.5,0L175.753,1406.72,1.242,1581.165,175.75,1755.611l88.5,88.463L351.5,1931.3l174.509-174.447-87.257-87.224-88.494-88.464L526.01,1405.481Zm703,351.373h0L879.991,1756.854,1054.5,1931.3l174.51-174.442L1054.5,1582.408Zm353.616-.364h0l173.633,173.569,87.255-87.222,86.378-86.35H1582.625l0,0H1408.117Zm-1054.5,0h0L440,1668.39l87.256,87.223,173.633-173.569-174.511,0H353.618ZM1581.752,1406.72l-87.256,87.225-86.378,86.347h347.267Zm-1054.5,0h0L353.618,1580.288l174.509,0H700.885l-86.379-86.347L527.25,1406.72ZM1054.5,1231.037h0L879.991,1405.481l174.51,174.446,174.51-174.446L1054.5,1231.037ZM1230.25,703.976,1055.742,878.422,1143,965.645l88.5,88.466-88.5,88.465-87.255,87.222,174.509,174.448,87.255-87.225,88.5-88.463,174.506-174.445L1406,879.666l-88.5-88.464Zm-351.5,0h0L791.494,791.2,703,879.663l-174.51,174.448L703,1228.557l88.5,88.463,87.254,87.225L1053.261,1229.8,966,1142.572l-88.491-88.46L966,965.649l87.256-87.226L878.748,703.976Zm1054.5,0L1757.5,879.666l-174.508,174.444L1757.5,1228.557l175.753,175.685L2107.762,1229.8l-175.746-175.684h0L2107.76,878.426Zm-351.5,351.371L1407.242,1229.8l174.51,174.445,174.51-174.445Zm-1054.5,0h0L352.742,1229.8,527.25,1404.241,701.757,1229.8,527.25,1055.35Zm-351.5-351.371h0L1.242,878.426l175.749,175.685L1.243,1229.8l174.51,174.445L351.5,1228.557l174.506-174.445L351.5,879.666,175.749,703.979Zm705.116,351.007h0l86.38,86.347,87.255,87.221,87.257-87.219,86.378-86.348-347.271,0ZM1054.5,879.663h0l-87.259,87.225-86.377,86.346h347.27l-86.377-86.348L1054.5,879.663Zm527.251-175.684-174.51,174.447,174.51,174.445,174.51-174.445Zm-1054.5,0h0L352.742,878.426l174.507,174.445L701.757,878.422,527.25,703.979ZM1757.5,176.923h0L1582.989,351.37l87.256,87.222,88.5,88.464L1582.993,702.74,1757.5,877.188,1933.25,701.5l174.511-174.443L1933.25,352.609l-88.5-88.463L1757.5,176.923Zm-351.5,0L1230.25,352.609,1055.742,527.053,1230.25,701.5l88.5,88.466L1406,877.188l174.51-174.448-87.256-87.225-88.5-88.461L1580.509,351.37Zm-1054.5,0-87.256,87.223-88.5,88.463L1.242,527.056,175.749,701.5,351.5,877.188,526.01,702.74,350.261,527.053l88.493-88.462,87.258-87.222Zm351.5,0h0L528.492,351.37,704.241,527.053l-88.5,88.465L528.491,702.74,703,877.183l87.255-87.22L878.748,701.5l174.511-174.443L878.751,352.609,703,176.921Zm351.5,351.373h0L879.991,702.737,1054.5,877.182l174.51-174.445L1054.5,528.294Zm353.616-.364h0l86.378,86.345,87.256,87.224L1755.385,527.93H1408.117Zm-1054.5,0h0L527.25,701.5l87.256-87.22,86.379-86.35H353.618ZM1581.75,352.609,1408.117,526.178h174.511l172.756,0-86.378-86.348Zm-1054.5,0h0l-87.258,87.223L353.618,526.18l172.754,0h174.51L527.253,352.609ZM1054.5,176.921l0,0L879.991,351.37,1054.5,525.812,1229.01,351.37,1054.5,176.923ZM1581.751,1.238h0L1407.24,175.684l174.51,174.443,174.508-174.443L1581.751,1.238Zm-1054.5,0h0L352.743,175.684l174.51,174.443L701.761,175.682,527.253,1.238ZM880.868.873h0L1054.5,174.44,1228.135.876H1054.5l-173.632,0Z" transform="translate(0 -541.611)" fill="none" stroke="#0a0a0a" stroke-miterlimit="10" stroke-width="0.26"/></g></g></svg>