<?xml version="1.0" encoding="UTF-8"?>
<svg id="Layer_2" data-name="Layer 2" xmlns="http://www.w3.org/2000/svg" viewBox="0 0 461.76 94.39">
  <defs>
    <style>
      .cls-1 {
        fill-rule: evenodd;
        stroke-width: 0px;
      }

      .cls-1, .cls-2 {
        fill: #fff;
      }

      .cls-2 {
        font-family: Montserrat-Bold, 'Montserrat Bold';
        font-size: 10.84px;
        font-weight: 700;
      }
    </style>
  </defs>
  <g>
    <path class="cls-1" d="m382.78,46.68c10.2,0,10.07,15.54,0,15.54s-10.31-15.54,0-15.54h0Zm-220.96,14.21c6.26,0,10.5-3.58,11.81-9.64h12.09c-1.44,12.57-11.12,20.68-23.83,20.68-14.3,0-25.15-10.3-25.15-24.74s10.85-24.73,25.15-24.73c12.7,0,22.38,8.11,23.83,20.68h-12.09c-1.31-6.06-5.55-9.64-11.81-9.64-17.49,0-17.49,27.39,0,27.39h0Zm44.54-23.83c-14.28,0-23.21,13.63-16,26.13,5.17,8.96,17.12,11.1,25.43,6.46,14.93-8.33,10.85-32.6-9.43-32.6h0Zm.07,25.15c-10.18,0-10.31-15.54,0-15.54s10.07,15.54,0,15.54h0Zm31.05,9.71l-14.67-34.87h11.95l8.1,19.57,8.11-19.57h11.95l-14.67,34.87h-10.76Zm58.79-18.66c0-10.13-7.43-16.21-17.33-16.21-10.56,0-18.03,6.33-18.03,16.91,0,6.61,3.03,12.35,8.84,15.48,8.85,4.75,23.58,2.32,26.17-9.12h-11.18c-1.12,1.73-3.07,2.45-5.17,2.45-3.83,0-6.61-1.93-7.62-5.45h24.18l-.07-.21c.14-.84.21-2.12.21-3.84h0Zm-17.33-7.77c3.66,0,6.06,1.57,6.71,5.19h-13.83c.85-3.57,3.41-5.19,7.13-5.19h0Zm43.7,1.76c-4.65.16-8.58,1.25-11.67,4.33v20.33h-11.32v-34.87h11.32v3.63c3.26-2.8,7.15-3.63,11.67-3.63v10.2h0Zm10.44,39.34l6.43-15.23-16.07-34.31h12.02l9.71,20.89,8.8-20.89h11.88l-20.89,49.54h-11.88Zm95.01-14.67v-3.21c-9.05,6.97-23.76,2.41-23.76-12.3v-19.36h11.32v17.61c0,4.25,2.03,7.13,6.22,7.13,2.14,0,4.22-1.12,6.22-3.35v-21.38h11.32v34.87h-11.32Zm-45.37-34.87c-14.28,0-23.21,13.63-16,26.13,5.17,8.96,17.12,11.1,25.43,6.46,14.93-8.33,10.85-32.6-9.43-32.6Z"/>
    <g>
      <g>
        <polygon class="cls-1" points="23.82 29.67 30.67 29.67 37.52 29.67 44.38 29.67 51.23 29.67 64.61 29.67 61.19 23.74 47.8 23.74 40.95 23.74 34.1 23.74 27.25 23.74 20.39 23.74 13.54 23.74 10.12 29.67 16.97 29.67 23.82 29.67"/>
        <polygon class="cls-1" points="30.67 17.8 37.52 17.8 44.38 17.8 51.23 17.8 57.76 17.8 54.33 11.87 47.8 11.87 40.95 11.87 34.1 11.87 27.25 11.87 20.39 11.87 16.97 17.8 23.82 17.8 30.67 17.8"/>
        <polygon class="cls-1" points="30.67 5.94 37.52 5.94 44.38 5.94 50.91 5.94 47.48 0 40.95 0 34.1 0 27.25 0 23.82 5.94 30.67 5.94"/>
      </g>
      <g>
        <polygon class="cls-1" points="54.33 11.87 57.76 17.81 61.18 23.74 64.61 29.67 68.04 35.61 74.73 47.19 78.16 41.26 71.46 29.67 68.04 23.74 64.61 17.8 61.18 11.87 57.76 5.93 54.33 0 47.48 0 50.91 5.94 54.33 11.87"/>
        <polygon class="cls-1" points="68.04 11.87 71.46 17.8 74.89 23.74 78.32 29.67 81.58 35.33 85.01 29.39 81.74 23.74 78.32 17.8 74.89 11.87 71.46 5.93 68.04 0 61.18 0 64.61 5.93 68.04 11.87"/>
        <polygon class="cls-1" points="78.31 5.93 81.74 11.87 85.17 17.8 88.43 23.46 91.86 17.53 88.59 11.87 85.17 5.93 81.74 0 74.89 0 78.31 5.93"/>
      </g>
      <g>
        <polygon class="cls-1" points="85.01 29.39 81.58 35.33 78.16 41.26 74.73 47.2 71.3 53.13 64.61 64.72 71.46 64.72 78.16 53.13 81.58 47.19 85.01 41.26 88.43 35.33 91.86 29.39 95.29 23.46 91.86 17.53 88.43 23.46 85.01 29.39"/>
        <polygon class="cls-1" points="91.86 41.26 88.43 47.19 85.01 53.13 81.58 59.06 78.32 64.72 85.17 64.72 88.43 59.06 91.86 53.13 95.29 47.19 98.71 41.26 102.14 35.33 98.71 29.39 95.29 35.33 91.86 41.26"/>
        <polygon class="cls-1" points="102.14 47.19 98.71 53.13 95.29 59.06 92.02 64.72 98.87 64.72 102.14 59.06 105.56 53.13 108.99 47.19 105.56 41.26 102.14 47.19"/>
      </g>
      <g>
        <polygon class="cls-1" points="85.17 64.72 78.32 64.72 71.47 64.72 64.61 64.72 57.76 64.72 44.38 64.72 47.8 70.65 61.19 70.65 68.04 70.65 74.89 70.65 81.74 70.65 88.6 70.65 95.45 70.65 98.87 64.72 92.02 64.72 85.17 64.72"/>
        <polygon class="cls-1" points="78.32 76.59 71.47 76.59 64.61 76.59 57.76 76.59 51.23 76.59 54.66 82.52 61.19 82.52 68.04 82.52 74.89 82.52 81.74 82.52 88.6 82.52 92.02 76.59 85.17 76.59 78.32 76.59"/>
        <polygon class="cls-1" points="78.32 88.46 71.47 88.46 64.61 88.46 58.08 88.46 61.51 94.39 68.04 94.39 74.89 94.39 81.74 94.39 85.17 88.46 78.32 88.46"/>
      </g>
      <g>
        <polygon class="cls-1" points="54.66 82.52 51.23 76.59 47.81 70.65 44.38 64.72 40.95 58.79 34.26 47.2 30.84 53.13 37.53 64.72 40.95 70.66 44.38 76.59 47.81 82.52 51.23 88.46 54.66 94.39 61.51 94.39 58.08 88.46 54.66 82.52"/>
        <polygon class="cls-1" points="40.95 82.52 37.53 76.59 34.1 70.65 30.67 64.72 27.41 59.06 23.98 65 27.25 70.66 30.67 76.59 34.1 82.52 37.53 88.46 40.95 94.39 47.81 94.39 44.38 88.46 40.95 82.52"/>
        <polygon class="cls-1" points="30.68 88.46 27.25 82.52 23.82 76.59 20.56 70.93 17.13 76.87 20.4 82.52 23.82 88.46 27.25 94.39 34.1 94.39 30.68 88.46"/>
      </g>
      <g>
        <polygon class="cls-1" points="23.98 65 27.41 59.06 30.83 53.13 34.26 47.2 37.69 41.26 44.38 29.67 37.53 29.67 30.83 41.26 27.41 47.2 23.98 53.13 20.56 59.07 17.13 65 13.7 70.93 17.13 76.87 20.56 70.93 23.98 65"/>
        <polygon class="cls-1" points="17.13 53.13 20.56 47.2 23.98 41.26 27.41 35.33 30.67 29.67 23.82 29.67 20.56 35.33 17.13 41.26 13.7 47.2 10.28 53.13 6.85 59.07 10.28 65 13.7 59.07 17.13 53.13"/>
        <polygon class="cls-1" points="6.85 47.2 10.28 41.26 13.7 35.33 16.97 29.67 10.12 29.67 6.85 35.33 3.43 41.26 0 47.2 3.43 53.13 6.85 47.2"/>
      </g>
    </g>
  </g>
  <text class="cls-2" transform="translate(447.66 47.85)"><tspan x="0" y="0">TM</tspan></text>
</svg>