<?xml version="1.0" encoding="UTF-8"?>
<svg id="Layer_2" data-name="Layer 2" xmlns="http://www.w3.org/2000/svg" viewBox="0 0 465.11 95.08">
  <defs>
    <style>
      .cls-1 {
        fill: #851fae;
      }

      .cls-1, .cls-2, .cls-3, .cls-4, .cls-5, .cls-6, .cls-7 {
        fill-rule: evenodd;
        stroke-width: 0px;
      }

      .cls-2 {
        fill: #3dbeff;
      }

      .cls-3, .cls-8 {
        fill: #1d0661;
      }

      .cls-4 {
        fill: #fed117;
      }

      .cls-5 {
        fill: #fc6915;
      }

      .cls-6 {
        fill: #1a63c3;
      }

      .cls-8 {
        font-family: Montserrat-Bold, 'Montserrat Bold';
        font-size: 10.92px;
        font-weight: 700;
      }

      .cls-7 {
        fill: #fc3898;
      }
    </style>
  </defs>
  <g>
    <path class="cls-3" d="m385.56,47.01c10.27,0,10.15,15.65,0,15.65s-10.38-15.65,0-15.65h0Zm-222.56,14.32c6.3,0,10.58-3.6,11.89-9.71h12.18c-1.46,12.66-11.21,20.83-24,20.83-14.41,0-25.34-10.37-25.34-24.92s10.93-24.91,25.34-24.91c12.79,0,22.54,8.17,24,20.83h-12.18c-1.32-6.11-5.59-9.71-11.89-9.71-17.62,0-17.62,27.59,0,27.59h0Zm44.86-24c-14.38,0-23.38,13.73-16.12,26.32,5.2,9.03,17.25,11.18,25.62,6.51,15.04-8.39,10.93-32.83-9.5-32.83h0Zm.07,25.34c-10.25,0-10.38-15.65,0-15.65s10.14,15.65,0,15.65h0Zm31.28,9.78l-14.78-35.12h12.04l8.16,19.71,8.16-19.71h12.04l-14.78,35.12h-10.84Zm59.22-18.79c0-10.2-7.49-16.33-17.45-16.33-10.63,0-18.16,6.37-18.16,17.03,0,6.66,3.05,12.44,8.9,15.59,8.91,4.79,23.75,2.34,26.36-9.18h-11.26c-1.13,1.75-3.09,2.46-5.21,2.46-3.86,0-6.66-1.94-7.67-5.49h24.35l-.07-.21c.14-.84.21-2.13.21-3.87h0Zm-17.45-7.83c3.69,0,6.1,1.58,6.76,5.22h-13.94c.85-3.6,3.44-5.22,7.18-5.22h0Zm44.01,1.77c-4.68.16-8.65,1.26-11.75,4.36v20.48h-11.4v-35.12h11.4v3.66c3.28-2.82,7.2-3.66,11.75-3.66v10.28h0Zm10.51,39.63l6.47-15.34-16.19-34.56h12.11l9.78,21.04,8.87-21.04h11.97l-21.04,49.9h-11.97Zm95.7-14.78v-3.24c-9.12,7.02-23.93,2.42-23.93-12.39v-19.5h11.4v17.74c0,4.28,2.05,7.18,6.26,7.18,2.16,0,4.25-1.13,6.26-3.38v-21.54h11.4v35.12h-11.4Zm-45.7-35.12c-14.38,0-23.38,13.73-16.12,26.32,5.2,9.03,17.25,11.18,25.62,6.51,15.03-8.39,10.93-32.83-9.5-32.83Z"/>
    <g>
      <g>
        <polygon class="cls-6" points="23.99 29.89 30.9 29.89 37.8 29.89 44.7 29.89 51.6 29.89 65.08 29.89 61.63 23.91 48.15 23.91 41.25 23.91 34.35 23.91 27.44 23.91 20.54 23.91 13.64 23.91 10.19 29.89 17.09 29.89 23.99 29.89"/>
        <polygon class="cls-6" points="30.89 17.93 37.8 17.93 44.7 17.93 51.6 17.93 58.18 17.93 54.73 11.96 48.15 11.96 41.25 11.96 34.34 11.96 27.44 11.96 20.54 11.96 17.09 17.93 23.99 17.93 30.89 17.93"/>
        <polygon class="cls-6" points="30.89 5.98 37.8 5.98 44.7 5.98 51.28 5.98 47.83 0 41.25 0 34.35 0 27.44 0 23.99 5.98 30.89 5.98"/>
      </g>
      <g>
        <polygon class="cls-4" points="54.73 11.95 58.18 17.93 61.63 23.91 65.08 29.89 68.53 35.86 75.27 47.54 78.72 41.56 71.98 29.89 68.53 23.91 65.08 17.93 61.63 11.95 58.18 5.98 54.73 0 47.83 0 51.28 5.98 54.73 11.95"/>
        <polygon class="cls-4" points="68.53 11.95 71.98 17.93 75.43 23.91 78.88 29.89 82.17 35.58 85.62 29.61 82.33 23.91 78.88 17.93 75.43 11.95 71.98 5.98 68.53 0 61.63 0 65.08 5.98 68.53 11.95"/>
        <polygon class="cls-4" points="78.88 5.98 82.33 11.95 85.78 17.93 89.07 23.63 92.52 17.65 89.24 11.95 85.78 5.98 82.33 0 75.43 0 78.88 5.98"/>
      </g>
      <g>
        <polygon class="cls-5" points="85.62 29.6 82.17 35.58 78.72 41.56 75.27 47.54 71.82 53.51 65.08 65.19 71.98 65.19 78.72 53.51 82.17 47.54 85.62 41.56 89.07 35.58 92.53 29.6 95.98 23.63 92.52 17.65 89.07 23.63 85.62 29.6"/>
        <polygon class="cls-5" points="92.53 41.56 89.07 47.54 85.62 53.51 82.17 59.49 78.88 65.19 85.79 65.19 89.07 59.49 92.53 53.51 95.98 47.54 99.43 41.56 102.88 35.58 99.43 29.6 95.98 35.58 92.53 41.56"/>
        <polygon class="cls-5" points="102.88 47.54 99.43 53.51 95.98 59.49 92.69 65.19 99.59 65.19 102.88 59.49 106.33 53.51 109.78 47.54 106.33 41.56 102.88 47.54"/>
      </g>
      <g>
        <polygon class="cls-7" points="85.79 65.19 78.88 65.19 71.98 65.19 65.08 65.19 58.18 65.19 44.7 65.19 48.15 71.17 61.63 71.17 68.53 71.17 75.43 71.17 82.34 71.17 89.24 71.17 96.14 71.17 99.59 65.19 92.69 65.19 85.79 65.19"/>
        <polygon class="cls-7" points="78.89 77.14 71.98 77.14 65.08 77.14 58.18 77.14 51.6 77.14 55.05 83.12 61.63 83.12 68.53 83.12 75.43 83.12 82.34 83.12 89.24 83.12 92.69 77.14 85.79 77.14 78.89 77.14"/>
        <polygon class="cls-7" points="78.89 89.1 71.98 89.1 65.08 89.1 58.5 89.1 61.95 95.07 68.53 95.07 75.43 95.07 82.34 95.07 85.79 89.1 78.89 89.1"/>
      </g>
      <g>
        <polygon class="cls-1" points="55.05 83.12 51.6 77.14 48.15 71.17 44.7 65.19 41.25 59.21 34.51 47.54 31.06 53.52 37.8 65.19 41.25 71.17 44.7 77.14 48.15 83.12 51.6 89.1 55.05 95.08 61.95 95.07 58.5 89.1 55.05 83.12"/>
        <polygon class="cls-1" points="41.25 83.12 37.8 77.14 34.35 71.17 30.9 65.19 27.61 59.49 24.16 65.47 27.45 71.17 30.9 77.14 34.35 83.12 37.8 89.1 41.25 95.08 48.15 95.08 44.7 89.1 41.25 83.12"/>
        <polygon class="cls-1" points="30.9 89.1 27.45 83.12 23.99 77.14 20.71 71.45 17.26 77.42 20.54 83.12 24 89.1 27.45 95.08 34.35 95.08 30.9 89.1"/>
      </g>
      <g>
        <polygon class="cls-2" points="24.16 65.47 27.61 59.49 31.06 53.52 34.51 47.54 37.96 41.56 44.7 29.89 37.8 29.89 31.06 41.56 27.61 47.54 24.16 53.52 20.7 59.49 17.25 65.47 13.8 71.45 17.26 77.42 20.71 71.45 24.16 65.47"/>
        <polygon class="cls-2" points="17.25 53.52 20.7 47.54 24.16 41.56 27.61 35.59 30.9 29.89 23.99 29.89 20.7 35.59 17.25 41.56 13.8 47.54 10.35 53.52 6.9 59.49 10.35 65.47 13.8 59.49 17.25 53.52"/>
        <polygon class="cls-2" points="6.9 47.54 10.35 41.56 13.8 35.58 17.09 29.89 10.19 29.89 6.9 35.59 3.45 41.56 0 47.54 3.45 53.52 6.9 47.54"/>
      </g>
    </g>
  </g>
  <text class="cls-8" transform="translate(450.91 48.19)"><tspan x="0" y="0">TM</tspan></text>
</svg>