<?xml version="1.0" encoding="UTF-8"?>
<!DOCTYPE svg PUBLIC "-//W3C//DTD SVG 1.1//EN" "http://www.w3.org/Graphics/SVG/1.1/DTD/svg11.dtd">
<svg xmlns="http://www.w3.org/2000/svg" version="1.1" width="17866px" height="2216px" style="shape-rendering:geometricPrecision; text-rendering:geometricPrecision; image-rendering:optimizeQuality; fill-rule:evenodd; clip-rule:evenodd" xmlns:xlink="http://www.w3.org/1999/xlink">
<g><path style="opacity:1" fill="#f9faf9" d="M 9018.5,-0.5 C 9134.83,-0.5 9251.17,-0.5 9367.5,-0.5C 9370.89,1.72286 9373.39,4.72286 9375,8.5C 9376,694.888 9375.67,1381.22 9374,2067.5C 9372.04,2070.14 9369.54,2071.97 9366.5,2073C 9250.5,2073.67 9134.5,2073.67 9018.5,2073C 9014.76,2071.72 9012.26,2069.22 9011,2065.5C 9010.67,2009.5 9010.33,1953.5 9010,1897.5C 8966.26,1948.93 8915.09,1991.09 8856.5,2024C 8731.29,2092.45 8597.29,2122.78 8454.5,2115C 8222.17,2102.91 8029.34,2010.41 7876,1837.5C 7739.49,1674.48 7669.66,1485.98 7666.5,1272C 7668.1,1139.11 7699.26,1013.61 7760,895.5C 7844.13,732.37 7966.96,607.203 8128.5,520C 8303.66,430.978 8487.66,405.645 8680.5,444C 8779.05,464.779 8866.71,507.112 8943.5,571C 8967.81,592.635 8989.97,616.135 9010,641.5C 9010.33,430.167 9010.67,218.833 9011,7.5C 9012.35,3.64987 9014.85,0.983199 9018.5,-0.5 Z M 8514.5,772.5 C 8667.2,769.456 8794.37,824.456 8896,937.5C 9010.37,1072.92 9047.03,1227.25 9006,1400.5C 8968.05,1532.74 8890.55,1634.57 8773.5,1706C 8641.28,1780.06 8504.28,1790.06 8362.5,1736C 8226,1677.5 8131.83,1578.67 8080,1439.5C 8036.37,1309.32 8042.7,1181.65 8099,1056.5C 8168.01,915.55 8278.51,825.05 8430.5,785C 8458.33,778.715 8486.33,774.548 8514.5,772.5 Z"/></g>
<g><path style="opacity:1" fill="#f9faf9" d="M -0.5,1310.5 C -0.5,1284.5 -0.5,1258.5 -0.5,1232.5C 12.0303,1027.6 86.5303,849.272 223,697.5C 350.457,562.83 505.957,478.33 689.5,444C 938.653,395.752 1165.32,446.086 1369.5,595C 1539.12,724.259 1646.62,893.759 1692,1103.5C 1712.37,1200.81 1718.87,1298.81 1711.5,1397.5C 1709.97,1398.86 1708.3,1400.03 1706.5,1401C 1272.83,1401.5 839.167,1401.67 405.5,1401.5C 414.855,1479.18 443.689,1548.51 492,1609.5C 566.985,1700.78 662.819,1757.94 779.5,1781C 952.913,1808.5 1104.25,1763.5 1233.5,1646C 1246.33,1633.17 1259.17,1620.33 1272,1607.5C 1289.59,1587.92 1306.42,1567.75 1322.5,1547C 1326.37,1545.48 1330.37,1545.15 1334.5,1546C 1431.17,1599.67 1527.83,1653.33 1624.5,1707C 1629.26,1711.49 1630.76,1716.99 1629,1723.5C 1526.58,1856.29 1400.08,1959.12 1249.5,2032C 1078.91,2110.41 900.908,2134.07 715.5,2103C 525.955,2072.65 364.455,1989.49 231,1853.5C 89.8699,1700.49 12.7033,1519.49 -0.5,1310.5 Z M 820.5,752.5 C 1000.99,750.463 1138.49,825.463 1233,977.5C 1255.13,1014.77 1272.63,1054.1 1285.5,1095.5C 992.833,1095.5 700.167,1095.5 407.5,1095.5C 432.007,998.268 481.674,916.768 556.5,851C 633.302,788.89 721.302,756.057 820.5,752.5 Z"/></g>
<g><path style="opacity:1" fill="#f9faf9" d="M 3956.5,426.5 C 4078.75,423.318 4195.75,446.484 4307.5,496C 4508.16,585.658 4653.99,730.491 4745,930.5C 4795.82,1050.59 4821.82,1175.92 4823,1306.5C 4823.98,1335.89 4823.64,1365.23 4822,1394.5C 4820.44,1397.73 4817.94,1399.9 4814.5,1401C 4380.83,1401.5 3947.17,1401.67 3513.5,1401.5C 3526.82,1500.63 3569.15,1584.8 3640.5,1654C 3744.31,1749.95 3867.31,1794.95 4009.5,1789C 4118.28,1782.42 4215.62,1746.08 4301.5,1680C 4350.32,1641.85 4392.99,1597.85 4429.5,1548C 4435.5,1544.67 4441.5,1544.67 4447.5,1548C 4541.5,1600.33 4635.5,1652.67 4729.5,1705C 4737.7,1709.26 4740.2,1715.76 4737,1724.5C 4641.82,1846.27 4526.32,1943.43 4390.5,2016C 4205.42,2109.68 4010.76,2137.68 3806.5,2100C 3581.23,2059.2 3401.06,1947.36 3266,1764.5C 3135.11,1575.93 3085.78,1367.59 3118,1139.5C 3155.02,923.1 3258.18,746.267 3427.5,609C 3553.66,512.799 3695.99,454.799 3854.5,435C 3888.55,430.856 3922.55,428.023 3956.5,426.5 Z M 3928.5,752.5 C 4112.05,750.655 4250.88,827.655 4345,983.5C 4364.91,1019.15 4381.41,1056.31 4394.5,1095C 4101.5,1095.67 3808.5,1095.67 3515.5,1095C 3539.22,1003.51 3585.22,925.507 3653.5,861C 3732.19,792.682 3823.85,756.515 3928.5,752.5 Z"/></g>
<g><path style="opacity:1" fill="#f9faf9" d="M 5639.5,426.5 C 5696.7,423.977 5752.03,432.811 5805.5,453C 5823.63,459.978 5840.46,469.145 5856,480.5C 5858.24,483.881 5858.91,487.548 5858,491.5C 5817.67,604.167 5777.33,716.833 5737,829.5C 5733.47,836.235 5727.97,838.735 5720.5,837C 5683.01,810.668 5641.35,795.501 5595.5,791.5C 5527.55,793.95 5471.05,820.284 5426,870.5C 5394.97,909.244 5378.3,953.577 5376,1003.5C 5375.67,1357.5 5375.33,1711.5 5375,2065.5C 5373.08,2069.08 5370.25,2071.58 5366.5,2073C 5249.78,2073.99 5133.11,2073.66 5016.5,2072C 5014.29,2070.13 5012.46,2067.96 5011,2065.5C 5010.33,1536.17 5010.33,1006.83 5011,477.5C 5012.6,472.901 5015.76,470.068 5020.5,469C 5129.89,468.006 5239.22,468.34 5348.5,470C 5352.49,471.99 5354.99,475.157 5356,479.5C 5356.33,522.833 5356.67,566.167 5357,609.5C 5403.04,527.056 5470.88,470.889 5560.5,441C 5586.46,433.342 5612.8,428.509 5639.5,426.5 Z"/></g>
<g><path style="opacity:1" fill="#f9faf9" d="M 10378.5,426.5 C 10487.2,422.111 10591.8,440.278 10692.5,481C 10766.1,512.178 10829.9,557.012 10884,615.5C 10891.4,623.877 10898.4,632.544 10905,641.5C 10905.3,586.833 10905.7,532.167 10906,477.5C 10907.1,474.063 10909.3,471.563 10912.5,470C 11028.5,468.341 11144.5,468.008 11260.5,469C 11264.1,469.7 11266.9,471.533 11269,474.5C 11270.7,1004.75 11271,1535.09 11270,2065.5C 11269.2,2068.58 11267.4,2070.75 11264.5,2072C 11205.9,2073.16 11147.2,2073.66 11088.5,2073.5C 11029.4,2073.66 10970.4,2073.16 10911.5,2072C 10908.9,2070.04 10907,2067.54 10906,2064.5C 10905.7,2009.17 10905.3,1953.83 10905,1898.5C 10834.3,1978.43 10748.5,2036.27 10647.5,2072C 10540.8,2109.54 10431.2,2123.21 10318.5,2113C 10060.3,2088.24 9857.84,1970.07 9711,1758.5C 9592.36,1578.58 9545.02,1381.25 9569,1166.5C 9597.24,985.037 9673.24,827.371 9797,693.5C 9954.67,527.101 10148.5,438.101 10378.5,426.5 Z M 10409.5,772.5 C 10558.6,769.227 10683.8,821.894 10785,930.5C 10898.2,1059.23 10938.9,1208.23 10907,1377.5C 10876.8,1504.52 10809.3,1606.35 10704.5,1683C 10577.4,1770.13 10439.7,1791.8 10291.5,1748C 10157.4,1702.52 10058.9,1616.36 9996,1489.5C 9931.51,1347.43 9930.17,1204.77 9992,1061.5C 10056.9,924.898 10161.8,834.398 10306.5,790C 10340.4,780.756 10374.7,774.922 10409.5,772.5 Z"/></g>
<g><path style="opacity:1" fill="#f9faf9" d="M 14001.5,426.5 C 14101.7,422.877 14200.1,434.711 14296.5,462C 14417.4,499.077 14523.4,560.744 14614.5,647C 14668.4,698.522 14715.9,755.022 14757,816.5C 14758.6,822.606 14757.1,827.772 14752.5,832C 14654.7,889.748 14557,947.748 14459.5,1006C 14452.4,1011.7 14445.2,1011.86 14438,1006.5C 14306.8,804.395 14123.6,733.228 13888.5,793C 13745.2,837.014 13642.3,927.181 13580,1063.5C 13534,1175.04 13525.7,1289.37 13555,1406.5C 13594.9,1550.67 13681.7,1655.84 13815.5,1722C 13924.7,1771.23 14037.7,1782.56 14154.5,1756C 14239.1,1733.28 14311,1689.78 14370,1625.5C 14395,1598.16 14417.4,1568.82 14437,1537.5C 14441.1,1532.79 14446.3,1531.29 14452.5,1533C 14553.2,1592 14653.5,1651.5 14753.5,1711.5C 14757.8,1716.57 14758.6,1722.24 14756,1728.5C 14654.1,1884.32 14516,1995.16 14341.5,2061C 14197.1,2113.48 14048.7,2128.81 13896.5,2107C 13723.2,2084.65 13570.5,2017.31 13438.5,1905C 13275.6,1757.34 13181.7,1573.51 13157,1353.5C 13138.6,1127.77 13197.9,925.439 13335,746.5C 13462,589.754 13624.8,490.254 13823.5,448C 13882.4,435.888 13941.7,428.722 14001.5,426.5 Z"/></g>
<g><path style="opacity:1" fill="#f9faf9" d="M 15720.5,426.5 C 15828.4,422.201 15932.4,440.035 16032.5,480C 16105.6,510.088 16169.1,553.921 16223,611.5C 16232.1,621.284 16240.4,631.618 16248,642.5C 16248.3,587.167 16248.7,531.833 16249,476.5C 16250.5,473.667 16252.7,471.5 16255.5,470C 16371.1,468.339 16486.8,468.006 16602.5,469C 16608.2,469.757 16611.7,472.924 16613,478.5C 16613.7,1007.17 16613.7,1535.83 16613,2064.5C 16611.9,2067.56 16610.1,2070.06 16607.5,2072C 16490.6,2073.66 16373.6,2073.99 16256.5,2073C 16252.8,2071.72 16250.3,2069.22 16249,2065.5C 16248.7,2009.5 16248.3,1953.5 16248,1897.5C 16198.1,1955.87 16138.9,2002.37 16070.5,2037C 15937.5,2102.65 15797.2,2127.65 15649.5,2112C 15397.1,2084.61 15198.9,1967.44 15055,1760.5C 14934.6,1579.22 14886.9,1380.22 14912,1163.5C 14945.3,959.025 15037.1,786.525 15187.5,646C 15338.5,509.569 15516.1,436.402 15720.5,426.5 Z M 15752.5,772.5 C 15908.7,769.886 16037.9,827.219 16140,944.5C 16249.6,1078.98 16284.3,1230.98 16244,1400.5C 16207.5,1528.62 16133.3,1628.46 16021.5,1700C 15889,1778.49 15750.3,1791.15 15605.5,1738C 15481.5,1687.04 15391,1600.87 15334,1479.5C 15281.3,1358.15 15275.3,1234.48 15316,1108.5C 15369.6,959.862 15470.1,857.029 15617.5,800C 15661.4,784.721 15706.4,775.554 15752.5,772.5 Z"/></g>
<g><path style="opacity:1" fill="#f9faf9" d="M 17865.5,483.5 C 17865.5,486.833 17865.5,490.167 17865.5,493.5C 17824.6,606.364 17783.8,719.364 17743,832.5C 17738,837.607 17732.2,838.773 17725.5,836C 17689.1,810.018 17648.4,795.185 17603.5,791.5C 17524.8,794.406 17463,827.74 17418,891.5C 17398.1,923.653 17386.7,958.653 17384,996.5C 17383.7,1352.17 17383.3,1707.83 17383,2063.5C 17381.9,2068.24 17379.1,2071.4 17374.5,2073C 17258.5,2073.67 17142.5,2073.67 17026.5,2073C 17023.1,2071.9 17020.6,2069.73 17019,2066.5C 17017.8,1801.55 17017.3,1536.55 17017.5,1271.5C 17017.7,1007.5 17017.8,743.5 17018,479.5C 17019.5,474 17023,470.5 17028.5,469C 17082.7,468.833 17136.8,468.667 17191,468.5C 17246.2,468.339 17301.4,468.839 17356.5,470C 17359.7,471.563 17361.9,474.063 17363,477.5C 17363.3,521.833 17363.7,566.167 17364,610.5C 17420,510.717 17504.5,450.55 17617.5,430C 17683.7,421.478 17748,428.811 17810.5,452C 17828.2,459.359 17845.2,468.025 17861.5,478C 17863,479.812 17864.3,481.645 17865.5,483.5 Z"/></g>
<g><path style="opacity:1" fill="#f9faf9" d="M 1665.5,468.5 C 1793.17,468.333 1920.83,468.5 2048.5,469C 2051.43,469.272 2053.93,470.438 2056,472.5C 2170.53,767.088 2284.86,1061.75 2399,1356.5C 2512.46,1061.58 2626.46,766.915 2741,472.5C 2743.3,470.932 2745.8,469.765 2748.5,469C 2876.17,468.333 3003.83,468.333 3131.5,469C 3141.77,473.145 3144.61,480.311 3140,490.5C 2896.33,1030.83 2652.67,1571.17 2409,2111.5C 2402.87,2116.2 2396.37,2116.7 2389.5,2113C 2387.62,2110.75 2386.12,2108.25 2385,2105.5C 2142.94,1567.71 1900.61,1030.05 1658,492.5C 1652.01,481.646 1654.51,473.646 1665.5,468.5 Z"/></g>
<g><path style="opacity:1" fill="#f9faf9" d="M 6779.5,2215.5 C 6752.83,2215.5 6726.17,2215.5 6699.5,2215.5C 6605.21,2213.06 6513.21,2196.89 6423.5,2167C 6334.78,2135.17 6255.78,2087.84 6186.5,2025C 6145.26,1986.43 6106.1,1945.93 6069,1903.5C 6061.79,1893.31 6063.62,1885.14 6074.5,1879C 6169.17,1821 6263.83,1763 6358.5,1705C 6363.36,1702.79 6368.02,1703.12 6372.5,1706C 6413.18,1746.31 6457.84,1781.31 6506.5,1811C 6591.85,1860 6683.51,1878.67 6781.5,1867C 6849.95,1859.85 6913.29,1838.18 6971.5,1802C 7056.19,1744.57 7107.69,1665.07 7126,1563.5C 7130.45,1539.36 7133.11,1515.03 7134,1490.5C 7134.67,1464.17 7134.67,1437.83 7134,1411.5C 7088.33,1462.2 7036.5,1505.03 6978.5,1540C 6903.05,1582.12 6822.05,1605.45 6735.5,1610C 6643.08,1618.23 6552.41,1609.23 6463.5,1583C 6305.27,1531.09 6186.11,1432.26 6106,1286.5C 6050.55,1180.36 6019.88,1067.36 6014,947.5C 6012.87,865.342 6012.37,783.176 6012.5,701C 6012.67,626.5 6012.83,552 6013,477.5C 6014.87,472.649 6018.37,469.816 6023.5,469C 6138.17,468.333 6252.83,468.333 6367.5,469C 6371.84,470.01 6375.01,472.51 6377,476.5C 6377.33,623.833 6377.67,771.167 6378,918.5C 6378.47,982.363 6392.47,1043.03 6420,1100.5C 6460.59,1175.74 6522.09,1225.24 6604.5,1249C 6669.24,1266.32 6734.9,1270.98 6801.5,1263C 6977.53,1239.97 7079.7,1140.8 7108,965.5C 7110.32,950.908 7111.99,936.241 7113,921.5C 7114.31,774.179 7114.97,626.845 7115,479.5C 7116.5,474 7120,470.5 7125.5,469C 7240.17,468.333 7354.83,468.333 7469.5,469C 7473.84,470.01 7477.01,472.51 7479,476.5C 7480.16,652.112 7480.66,827.778 7480.5,1003.5C 7480.65,1186.51 7480.15,1369.51 7479,1552.5C 7463.37,1783.05 7359.87,1961.55 7168.5,2088C 7049.72,2163.43 6920.05,2205.93 6779.5,2215.5 Z"/></g>
<g><path style="opacity:1" fill="#f9faf9" d="M 12290.5,2215.5 C 12263.8,2215.5 12237.2,2215.5 12210.5,2215.5C 12126.3,2212.92 12043.6,2199.75 11962.5,2176C 11859.9,2143.9 11769.6,2091.57 11691.5,2019C 11652.2,1981.4 11614.7,1942.24 11579,1901.5C 11575.7,1895.83 11575.7,1890.17 11579,1884.5C 11674.6,1824.96 11770.4,1765.79 11866.5,1707C 11872.3,1702.79 11878.3,1702.46 11884.5,1706C 11924.5,1746 11968.5,1780.67 12016.5,1810C 12113.6,1865.46 12217.3,1882.8 12327.5,1862C 12402.6,1848.94 12468.9,1817.94 12526.5,1769C 12588.2,1711.37 12625.7,1640.53 12639,1556.5C 12645.8,1508.4 12648.1,1460.07 12646,1411.5C 12612.2,1447.61 12575.7,1480.44 12536.5,1510C 12453.7,1568.72 12361.4,1601.72 12259.5,1609C 12164.2,1618.79 12070.5,1610.45 11978.5,1584C 11816.5,1531.96 11695.3,1431.13 11615,1281.5C 11558.9,1172 11528.9,1055.67 11525,932.5C 11524.3,780.5 11524.3,628.5 11525,476.5C 11527,472.51 11530.2,470.01 11534.5,469C 11649.2,468.333 11763.8,468.333 11878.5,469C 11883.6,469.816 11887.1,472.649 11889,477.5C 11889.3,627.5 11889.7,777.5 11890,927.5C 11891.4,991.442 11906.7,1051.78 11936,1108.5C 11978.5,1181.88 12041,1229.38 12123.5,1251C 12203.9,1270.55 12284.6,1271.55 12365.5,1254C 12489,1224.5 12569.2,1149 12606,1027.5C 12616.2,991.51 12622.6,954.844 12625,917.5C 12626.3,771.177 12627,624.844 12627,478.5C 12628.3,472.924 12631.8,469.757 12637.5,469C 12752.2,468.333 12866.8,468.333 12981.5,469C 12985.8,470.01 12989,472.51 12991,476.5C 12991.7,833.5 12991.7,1190.5 12991,1547.5C 12976.1,1786.21 12868.3,1969.05 12667.5,2096C 12551.7,2166.87 12426,2206.7 12290.5,2215.5 Z"/></g>
</svg>
