<?xml version="1.0" encoding="UTF-8"?><svg id="Layer_1" xmlns="http://www.w3.org/2000/svg" width="176.13" height="53.44" viewBox="0 0 176.13 53.44"><g><path d="m26.72,7.99V0C11.97,0,0,11.97,0,26.72s11.97,26.72,26.72,26.72v-7.95c-10.37,0-18.77-8.4-18.77-18.77S16.39,7.99,26.72,7.99h0Z"/><path d="m45.48,26.72c0,10.37-8.4,18.77-18.77,18.77v-7.95c5.95,0,10.78-4.83,10.78-10.78s-4.83-10.81-10.78-10.81v-7.95c10.37,0,18.77,8.4,18.77,18.73Z"/><path d="m26.72,15.94v21.59c-5.95,0-10.78-4.83-10.78-10.78s4.83-10.81,10.78-10.81h0Z"/></g><g><path d="m121.97,24.17c-.95-1.87-2.41-3.43-4.22-4.52s-3.91-1.6-6.36-1.6-4.56.54-6.36,1.6-3.26,2.65-4.22,4.52c-.99,1.94-1.5,4.22-1.5,6.8s.51,4.83,1.5,6.76c.95,1.87,2.41,3.43,4.22,4.49,1.8,1.09,3.91,1.6,6.36,1.6s4.52-.54,6.36-1.6c1.8-1.05,3.26-2.62,4.22-4.49,1.02-1.94,1.5-4.18,1.5-6.76s-.48-4.83-1.5-6.8Zm-4.15,11.18c-.48,1.26-1.29,2.38-2.38,3.2-1.05.78-2.41,1.19-4.05,1.19s-2.96-.41-4.05-1.19c-1.09-.82-1.9-1.94-2.38-3.2-1.02-2.82-1.02-5.95,0-8.8.48-1.29,1.29-2.38,2.38-3.23,1.09-.82,2.41-1.22,4.05-1.22s2.96.41,4.05,1.22c1.09.82,1.9,1.94,2.38,3.23,1.05,2.86,1.05,5.95,0,8.8Z"/><path d="m149.51,24.17c-.95-1.87-2.41-3.43-4.22-4.52s-3.91-1.6-6.36-1.6-4.56.54-6.36,1.6-3.26,2.65-4.22,4.52c-.99,1.94-1.5,4.22-1.5,6.8s.51,4.83,1.5,6.76c.95,1.87,2.41,3.43,4.22,4.49,1.8,1.09,3.91,1.6,6.36,1.6s4.52-.54,6.36-1.6c1.8-1.05,3.26-2.62,4.22-4.49,1.02-1.94,1.5-4.18,1.5-6.76s-.51-4.83-1.5-6.8Zm-4.15,11.18c-.48,1.26-1.29,2.38-2.38,3.2-1.05.78-2.41,1.19-4.05,1.19s-2.96-.41-4.05-1.19c-1.09-.82-1.9-1.94-2.38-3.2-1.02-2.82-1.02-5.95,0-8.8.48-1.29,1.29-2.38,2.38-3.23,1.05-.82,2.41-1.22,4.05-1.22s2.96.41,4.05,1.22c1.09.82,1.9,1.94,2.38,3.23,1.02,2.86,1.02,5.95,0,8.8Z"/><path d="m167.42,22.3v-3.91h-5.41v-2.01c0-1.12.24-1.97.75-2.55s1.36-.88,2.55-.88c.51,0,.95.03,1.29.14.34.1.65.17.88.24l1.16-3.94c-.34-.14-.85-.27-1.53-.41-.68-.17-1.53-.24-2.52-.24-1.33,0-2.55.27-3.67.78s-2.04,1.29-2.72,2.35c-.68,1.02-1.02,2.31-1.02,3.91v2.65h-3.88v3.91h3.88v21.11h4.86v-21.14h5.37Z"/><path d="m57.25,43.41V10.03h11.9c2.58,0,4.76.48,6.46,1.43,1.7.95,2.99,2.24,3.84,3.88s1.26,3.47,1.26,5.51-.44,3.91-1.29,5.54c-.85,1.63-2.14,2.92-3.84,3.88s-3.84,1.43-6.42,1.43h-3.74v-4.28h3.26c1.63,0,2.96-.27,3.98-.85s1.77-1.36,2.24-2.35.71-2.11.71-3.37-.24-2.38-.71-3.37c-.48-.99-1.22-1.73-2.28-2.31-1.02-.54-2.38-.82-4.05-.82h-6.32v6.87h0v22.16h-5v.03Z"/><path d="m84.78,43.41v-25.02h4.73v3.98h.27c.44-1.36,1.26-2.41,2.41-3.16,1.16-.78,2.48-1.19,3.94-1.19.31,0,.68,0,1.09.03s.75.03.99.07v4.66c-.2-.07-.54-.1-1.05-.17s-.99-.1-1.5-.1c-1.16,0-2.18.24-3.09.75-.88.48-1.6,1.16-2.11,2.01s-.78,1.8-.78,2.89v15.26h-4.9Z"/></g><g><path d="m170.04,39.94c-.03-.24-.14-.41-.34-.54s-.44-.2-.71-.2c-.2,0-.37.03-.54.1-.17.07-.27.17-.34.27s-.14.24-.14.41c0,.14.03.24.1.31s.14.17.24.2c.1.07.2.1.31.14s.2.07.27.1l.48.14c.14.03.27.07.41.14.14.07.31.14.41.24.14.1.24.2.34.37s.14.34.14.54c0,.24-.07.48-.2.68s-.31.37-.58.48-.54.17-.92.17c-.34,0-.61-.07-.85-.17s-.44-.27-.58-.44-.2-.41-.24-.68h.58c0,.17.07.31.17.44s.24.2.37.24.34.07.51.07c.2,0,.41-.03.58-.1s.31-.17.41-.31c.1-.14.14-.27.14-.44,0-.14-.03-.27-.14-.37s-.2-.17-.34-.24-.31-.1-.44-.17l-.58-.17c-.37-.1-.65-.24-.85-.44s-.31-.44-.31-.75c0-.27.07-.48.2-.68s.34-.34.58-.44.51-.17.82-.17.54.07.78.17.41.24.54.44.2.41.2.61l-.48.07h0Z"/><path d="m171.57,38.79h.68l1.56,3.84h.07l1.56-3.84h.68v4.62h-.51v-3.5h-.03l-1.43,3.5h-.51l-1.43-3.5h-.03v3.5h-.51l-.1-4.62h0Z"/></g></svg>