<?xml version="1.0" encoding="UTF-8"?>
<svg id="Layer_1" data-name="Layer 1" xmlns="http://www.w3.org/2000/svg" viewBox="0 0 4924.59 1168.85">
  <defs>
    <style>
      .cls-1 {
        fill: #0056d2;
        stroke-width: 0px;
      }
    </style>
  </defs>
  <path class="cls-1" d="m951.31,0H78.21C35.02,0,0,35.02,0,78.21v873.1c0,43.2,35.02,78.21,78.21,78.21h873.1c43.2,0,78.21-35.02,78.21-78.21V78.21c0-43.2-35.02-78.21-78.21-78.21Zm-455.24,851.93c0,1.83-2.01,2.93-3.52,1.89-23.65-16.31-162.74-107.93-301.45-106.75-19.36.16-35.11-15.49-35.11-34.85V220.25c0-21.84,15.76-40.99,37.39-43.93,70.91-9.65,209.33,50.64,293.28,121.59,5.91,4.99,9.4,12.26,9.4,19.99v534.03Zm377.47-139.72c0,19.36-15.76,35.01-35.11,34.85-138.7-1.17-277.8,90.45-301.45,106.75-1.5,1.04-3.52-.06-3.52-1.89V317.9c0-7.74,3.5-15,9.4-19.99,83.95-70.95,222.37-131.24,293.28-121.59,21.64,2.94,37.39,22.1,37.39,43.93v491.96Z"/>
  <g>
    <path class="cls-1" d="m1421.32,937.09c-8.14,0-15.06-2.84-20.74-8.54-5.7-5.68-8.54-12.6-8.54-20.74V233.27h-225.66c-8.13,0-15.05-2.84-20.74-8.54-5.7-5.68-8.54-12.6-8.54-20.74v-90.26c0-8.94,2.84-16.26,8.54-21.95,5.68-5.68,12.6-8.54,20.74-8.54h622.1c8.94,0,16.26,2.86,21.95,8.54,5.68,5.7,8.54,13.01,8.54,21.95v90.26c0,8.14-2.86,15.05-8.54,20.74-5.7,5.7-13.01,8.54-21.95,8.54h-224.44v674.55c0,8.13-2.86,15.05-8.54,20.74s-13.01,8.54-21.95,8.54h-112.22Z"/>
    <path class="cls-1" d="m2064.16,949.29c-90.27,0-161.84-26.01-214.69-78.07-52.87-52.03-81.32-126.03-85.38-222-.82-8.12-1.22-18.49-1.22-31.11s.4-22.56,1.22-29.88c3.24-60.99,17.26-113.84,42.08-158.57,24.8-44.72,59.16-79.08,103.07-103.07,43.91-23.98,95.54-35.98,154.92-35.98,65.86,0,121.16,13.62,165.89,40.86,44.71,27.25,78.47,65.06,101.24,113.44,22.76,48.39,34.15,104.29,34.15,167.72v25.61c0,8.14-2.86,15.06-8.54,20.74-5.7,5.7-13.01,8.54-21.95,8.54h-404.97v9.76c.8,28.47,6.29,54.7,16.46,78.68,10.16,24,25.2,43.3,45.14,57.94,19.91,14.64,43.7,21.95,71.36,21.95,22.76,0,41.88-3.45,57.33-10.36,15.44-6.9,28.05-14.83,37.81-23.79,9.76-8.94,16.66-16.26,20.74-21.95,7.32-9.76,13.21-15.65,17.69-17.69,4.46-2.02,11.17-3.05,20.13-3.05h104.9c8.12,0,14.83,2.44,20.13,7.32,5.28,4.88,7.51,10.98,6.71,18.3-.81,13.01-7.52,28.88-20.13,47.57-12.62,18.72-30.7,37.01-54.28,54.89-23.59,17.9-53.06,32.74-88.44,44.52-35.37,11.78-75.83,17.69-121.36,17.69Zm-134.18-384.23h269.57v-3.66c0-31.72-5.29-59.35-15.86-82.95-10.58-23.58-26.04-42.27-46.35-56.11-20.33-13.82-44.73-20.74-73.18-20.74s-52.87,6.91-73.19,20.74c-20.34,13.84-35.59,32.53-45.74,56.11-10.17,23.6-15.25,51.23-15.25,82.95v3.66Z"/>
    <path class="cls-1" d="m2499.62,937.09c-8.14,0-15.05-2.84-20.74-8.54-5.7-5.68-8.54-12.6-8.54-20.74V333.3c0-8.94,2.84-16.26,8.54-21.95,5.68-5.68,12.6-8.54,20.74-8.54h98.8c8.13,0,15.25,2.86,21.35,8.54,6.09,5.7,9.15,13.01,9.15,21.95v50.01c18.7-26.01,42.88-45.93,72.58-59.77,29.67-13.81,64.04-20.74,103.07-20.74h50.01c8.94,0,16.05,2.86,21.35,8.54,5.28,5.7,7.93,12.62,7.93,20.74v87.82c0,8.14-2.65,15.06-7.93,20.74-5.3,5.7-12.4,8.54-21.35,8.54h-95.14c-39.04,0-69.34,10.97-90.87,32.94-21.56,21.95-32.33,52.05-32.33,90.26v335.44c0,8.13-2.86,15.05-8.54,20.74-5.7,5.7-13.02,8.54-21.95,8.54h-106.13Z"/>
    <path class="cls-1" d="m2983.88,937.09c-8.14,0-15.05-2.84-20.74-8.54-5.7-5.68-8.54-12.6-8.54-20.74V332.08c0-8.12,2.84-15.04,8.54-20.74,5.68-5.68,12.6-8.54,20.74-8.54h95.14c8.12,0,15.04,2.86,20.74,8.54,5.68,5.7,8.54,12.62,8.54,20.74v41.47c17.08-22.76,40.04-42.08,68.92-57.94,28.86-15.86,63.22-24.19,103.07-25,92.71-1.62,157.35,34.57,193.95,108.56,18.7-32.51,45.74-58.74,81.12-78.67,35.37-19.91,74.59-29.88,117.71-29.88s80.69,9.76,115.27,29.27c34.55,19.52,61.78,49,81.72,88.44,19.92,39.45,29.89,89.25,29.89,149.43v350.08c0,8.13-2.86,15.05-8.54,20.74-5.7,5.7-12.62,8.54-20.74,8.54h-100.03c-8.14,0-15.05-2.84-20.74-8.54-5.7-5.68-8.54-12.6-8.54-20.74v-340.32c0-36.59-5.3-65.66-15.86-87.22-10.58-21.54-24.81-36.78-42.69-45.74-17.9-8.94-37.81-13.42-59.77-13.42-17.9,0-35.79,4.48-53.67,13.42-17.9,8.95-32.54,24.2-43.92,45.74-11.4,21.56-17.07,50.63-17.07,87.22v340.32c0,8.13-2.86,15.05-8.54,20.74-5.7,5.7-12.62,8.54-20.74,8.54h-100.02c-8.96,0-16.07-2.84-21.35-8.54-5.3-5.68-7.93-12.6-7.93-20.74v-340.32c0-36.59-5.7-65.66-17.07-87.22-11.4-21.54-26.04-36.78-43.91-45.74-17.9-8.94-37.02-13.42-57.33-13.42-18.72,0-37.01,4.68-54.89,14.03-17.9,9.36-32.53,24.6-43.91,45.74-11.4,21.16-17.08,50.02-17.08,86.61v340.32c0,8.13-2.86,15.05-8.54,20.74-5.7,5.7-12.62,8.54-20.74,8.54h-102.46Z"/>
    <path class="cls-1" d="m4060.96,937.09c-8.14,0-15.05-2.84-20.74-8.54-5.7-5.68-8.54-12.6-8.54-20.74V100.32c0-8.12,2.84-15.04,8.54-20.74,5.68-5.68,12.6-8.54,20.74-8.54h101.24c8.12,0,15.04,2.86,20.74,8.54,5.68,5.7,8.54,12.62,8.54,20.74v807.5c0,8.13-2.86,15.05-8.54,20.74-5.7,5.7-12.62,8.54-20.74,8.54h-101.24Z"/>
    <path class="cls-1" d="m4443.99,1168.85c-6.52,0-12.2-2.44-17.08-7.32-4.88-4.88-7.32-10.58-7.32-17.08,0-3.26.19-6.31.61-9.15.4-2.86,1.83-6.31,4.27-10.37l95.14-225.66-234.21-552.56c-3.26-8.12-4.87-13.82-4.87-17.08.8-7.32,3.66-13.61,8.54-18.9,4.88-5.29,10.97-7.93,18.3-7.93h98.8c9.76,0,17.07,2.44,21.95,7.32,4.88,4.88,8.54,10.18,10.98,15.86l162.23,398.87,167.12-398.87c2.44-6.5,6.1-11.99,10.98-16.47,4.87-4.46,12.19-6.71,21.95-6.71h97.58c6.5,0,12.39,2.44,17.69,7.32,5.28,4.88,7.93,10.58,7.93,17.08,0,4.88-1.64,11.4-4.88,19.52l-345.2,798.96c-3.26,6.5-7.33,11.99-12.2,16.47-4.88,4.46-12.2,6.71-21.95,6.71h-96.36Z"/>
  </g>
</svg>