<?xml version="1.0" encoding="UTF-8"?>
<svg id="Layer_1" data-name="Layer 1" xmlns="http://www.w3.org/2000/svg" viewBox="0 0 500.64 88.32">
  <defs>
    <style>
      .cls-1 {
        fill: #fff;
        stroke-width: 0px;
      }
    </style>
  </defs>
  <path class="cls-1" d="m301.76,50.48c-3.85,5.74-6.94,11.65-11.33,16.35-2.37,2.54-6.98,4.27-10.54,4.21-11.97-.21-23.92-1.36-35.88-2.19-7.34-.5-14.67-1.04-22.01-1.61-2.64-.2-5.26-.55-8.86-.94,4.19-4.35,7.65-8.05,11.26-11.59.7-.69,1.97-1.06,3.01-1.12,24.27-1.32,48.55-2.58,72.83-3.83.27-.01.55.25,1.52.72Z"/>
  <path class="cls-1" d="m230.52,46.66c3.66-3.31,7.08-6.95,11.07-9.8,2.02-1.44,5.04-1.68,7.66-2.04,21.55-2.96,43.11-5.84,64.67-8.7,1.19-.16,2.41-.02,4.37-.02-5.98,9.76-10.92,18.81-24.08,19.1-20.01.45-39.99,1.97-59.98,3.03-.91.05-1.82,0-2.73,0-.33-.53-.65-1.06-.98-1.59Z"/>
  <path class="cls-1" d="m114.02,48.25c3.05,5.71,5.94,11.13,8.93,16.73q-9.65,1.2-13.98-6.38c-1.83-3.21-3.65-6.44-6.52-9.39-.81,5.11-1.62,10.21-2.49,15.77h-9.65c1.53-9.82,3.03-19.51,4.56-29.21.42-2.67,1.37-5.34,1.31-8-.14-5.72,2.76-7.04,7.76-6.38,4.56.61,9.28.45,13.72,1.52,7.98,1.91,10.94,8.39,6.85,15.59-1.85,3.25-5.5,5.5-8.36,8.16-.64.6-1.41,1.06-2.11,1.57Zm-8.75-19.11c-.64,4.65-1.24,9.06-1.86,13.57,9.17-.33,12.62-2.85,12.25-8.49-.28-4.29-2.54-5.46-10.39-5.07Z"/>
  <path class="cls-1" d="m261.42,29c5.59-6,10.21-11.02,14.92-15.95.61-.64,1.67-.98,2.58-1.18,17.6-3.97,35.21-7.89,52.82-11.81.6-.13,1.25-.02,2.36-.02-3.42,5.33-6.5,10.48-9.93,15.38-3.36,4.8-8.79,5.31-14.05,6.11-15.76,2.38-31.5,4.82-48.69,7.47Z"/>
  <path class="cls-1" d="m474.05,31.75c-.89,6.41-1.92,12.38-2.5,18.4-.67,6.96,1.97,9.12,8.75,7.64,5.3-1.16,10.2-8.47,8.54-13.6-.52-1.6-2.91-3.12-4.75-3.64-2.21-.63-4.74-.15-7.11-.15-.21-7.71.78-8.91,7.98-8.66,3.13.11,6.35.69,9.32,1.69,3.8,1.28,5.76,4.43,6.21,8.38,1.46,12.69-7.13,23.33-19.88,24.69-.8.08-1.59.19-2.39.25-14.29,1.11-19.95-5.08-17.42-19.05.65-3.6,1.66-7.18,1.92-10.8.3-4.1,2.06-5.7,6.1-5.17,1.7.22,3.45.04,5.23.04Z"/>
  <path class="cls-1" d="m165.89,32.78c.7-4.27,1.36-8.31,2.09-12.8,2.9-.27,5.84-.54,9.21-.85-1.23,8.02-2.4,15.51-3.51,23-1.12,7.55-2.19,15.1-3.32,22.97h-8.57c-.06-1.11-.11-2.19-.17-3.45-.54.26-.94.39-1.28.61-1.31.9-2.52,1.99-3.92,2.72-7.07,3.68-13.66.31-14.9-7.55-2.16-13.66,6.69-23.94,21.24-24.65.93-.05,1.87,0,3.15,0Zm-.94,7.11c-9.17-.71-13.37,3.45-13.6,12.7-.07,2.72-.83,6.84,3.18,6.65,2.8-.13,6.92-2.35,7.89-4.69,1.81-4.37,1.76-9.51,2.53-14.66Z"/>
  <path class="cls-1" d="m38,66.35c-9.03.02-14.66-5.35-14.64-14,.02-11.02,8.4-19.74,19.08-19.84,8.81-.09,14.63,5.73,14.69,14.69.07,10.48-8.56,19.12-19.13,19.15Zm10.58-19.64c-1.66-2.51-2.66-5.12-4.55-6.46-1.15-.81-4.03-.19-5.55.75-3.85,2.38-6.21,10.28-4.81,14.53,1.6,4.88,6.23,6.14,9.38,2.09,2.33-2.99,3.54-6.85,5.53-10.91Z"/>
  <path class="cls-1" d="m413.03,40.4q.71-8.84,8.43-8.84c3.04,0,6.09-.03,9.12.11,5.77.27,9.09,3.69,9.34,9.44,0,.16.01.32,0,.48-.98,7.55-1.96,15.1-.89,22.74.06.43-.24.91-.44,1.56h-31.59c.42-2.79.79-5.25,1.23-8.16h18.06c.9-4.7,1.87-9.01,2.52-13.37.42-2.82-1.19-4.03-3.99-3.98-3.83.07-7.65.02-11.8.02Z"/>
  <path class="cls-1" d="m15.78,65.28H5.8c1.79-11.77,3.55-23.3,5.39-35.38H0c.53-3.03.97-5.5,1.45-8.2h32.97q-1.08,7.67-12.95,8.37c-1.86,11.53-3.75,23.22-5.69,35.21Z"/>
  <path class="cls-1" d="m185.54,53.2c.46,4.03,2.32,6.66,6.96,6.36,3.46-.22,6.91-.58,10.45-.89.49,4.32-1.1,6.56-5.29,6.84-2.06.14-4.1.72-6.16.74-12.21.1-17.25-5.92-15.1-17.91,1.98-11.04,12.64-17.73,23.34-14.67,4.08,1.17,6.8,3.62,7.11,7.97.3,4.22-2.09,7.21-5.86,8.34-4.82,1.44-9.88,2.09-15.45,3.21Zm.88-8.46c.34.39.68.78,1.01,1.18,2.39,0,4.91.46,7.11-.17,1.37-.4,2.26-2.45,3.37-3.76-1.63-.87-3.76-2.85-4.81-2.38-2.5,1.1-4.49,3.36-6.69,5.14Z"/>
  <path class="cls-1" d="m68.38,33.94c1.08,6.93,2.11,13.54,3.35,21.49,2.74-5.87,5.01-10.66,7.21-15.48,3.19-7.02,3.17-7.04,12.05-5.82-5.24,10.03-10,20.12-15.84,29.55-1.27,2.04-6.43,1.68-10.32,2.54-2.05-11.33-3.92-21.64-5.84-32.28h9.4Z"/>
  <path class="cls-1" d="m322.89,30.91h25.52c-1.69,4.12-1.64,9.06-7.65,9.76-.72.08-1.49,2.21-1.74,3.48-1.41,7.17-2.66,14.36-4,21.74h-10.54c1.47-8.48,2.89-16.72,4.38-25.37h-9.62c1.35-3.58,2.49-6.58,3.65-9.62Z"/>
  <path class="cls-1" d="m364.1,81.29c6,1.83,8.29-1.11,8.61-6.16h7.78c-.44,2.09-.82,3.93-1.28,6.13h6.54c.49-1.76,1.04-3.71,1.68-6h7.63c-.29,2-.58,3.97-.88,5.97,3.25.92,5.56.76,6.41-3.28.26-1.22,2.41-2.76,3.8-2.89,4.28-.38,8.62-.14,13.44-.14-1.45,4.59-2.78,8.81-4.22,13.39h-21.47c.22-1.91.43-3.74.68-5.94h-6.4c-.54,1.88-1.07,3.7-1.71,5.92h-22.67c.65-2.21,1.26-4.27,2.07-7.01Z"/>
  <path class="cls-1" d="m401.45,65.95h-10.91c.84-4.9,1.61-9.5,2.41-14.1.08-.47.28-.92.38-1.38,2.03-9.58,1.56-10.16-8.11-10.08-2.86.02-5.72,0-8.57,0-.26-8.39.15-8.85,7.78-8.84,3.2,0,6.4.03,9.6.13,7.84.23,11.84,4.14,11.11,12.17-.66,7.39-2.42,14.68-3.71,22.09Z"/>
  <path class="cls-1" d="m458.6,32.25c-2.11,11.56-4.1,22.48-6.13,33.62h-10c2.05-11.33,4.05-22.36,6.09-33.62h10.04Z"/>
  <path class="cls-1" d="m136.16,65.15h-9.86c1.56-10.51,3.08-20.73,4.68-31.44,3.12-.14,6.07-.28,9.84-.45-1.58,10.84-3.11,21.26-4.66,31.88Z"/>
  <path class="cls-1" d="m225.53,22.53c15.35-3.18,30.7-6.35,46.05-9.53-5.46,7.31-12.05,12.06-21.21,12.05-8.26-.01-16.51,0-24.77,0-.02-.84-.05-1.68-.07-2.51Z"/>
  <path class="cls-1" d="m374.55,30.8c-1.4,6.87-2.69,13.21-4.02,19.71h-9.12c1.22-6.42,2.3-12.55,3.66-18.61.13-.57,2.02-.95,3.13-1.05,2.01-.17,4.04-.05,6.35-.05Z"/>
  <path class="cls-1" d="m359.41,30.8c-1.18,6.42-2.04,12.06-3.4,17.57-.26,1.04-2.46,1.92-3.92,2.27-1.63.39-3.42.09-5.5.09,1.02-6.12,1.83-11.74,3.01-17.29.22-1.04,1.84-2.27,3.01-2.52,1.95-.42,4.05-.11,6.8-.11Z"/>
  <path class="cls-1" d="m135.86,29.83c-1.52-1.83-4.12-3.55-4.32-5.52-.37-3.68,2.59-5.66,6.12-5.89,3.09-.2,5.23,1.47,5.55,4.67.29,3-2.85,5.78-7.35,6.73Z"/>
</svg>